<?xml version="1.0" standalone="no"?>
<!DOCTYPE svg PUBLIC "-//W3C//DTD SVG 20010904//EN"
 "http://www.w3.org/TR/2001/REC-SVG-20010904/DTD/svg10.dtd">
<svg version="1.0" xmlns="http://www.w3.org/2000/svg"
 width="68.000000pt" height="68.000000pt" viewBox="0 0 68.000000 68.000000"
 preserveAspectRatio="xMidYMid meet">

<g transform="translate(0.000000,68.000000) scale(0.100000,-0.100000)"
fill="#000000" stroke="none">
<path d="M315 630 c-10 -11 -26 -20 -37 -20 -10 0 -18 -4 -18 -10 0 -5 -20
-10 -44 -10 -29 0 -52 -7 -70 -21 -26 -20 -26 -22 -26 -149 l0 -128 -37 -7
c-60 -11 -63 -17 -63 -126 0 -75 4 -101 16 -113 13 -14 51 -16 263 -16 301 0
281 -10 281 139 0 102 0 103 42 180 42 77 42 78 25 105 -11 16 -26 26 -42 26
-22 0 -25 5 -25 33 0 51 -19 69 -79 75 -28 2 -54 9 -57 13 -3 5 -13 9 -22 9
-10 0 -25 9 -35 20 -9 11 -25 20 -35 20 -11 0 -27 -9 -37 -20z m50 -10 c11
-17 -5 -32 -21 -19 -7 6 -11 15 -8 20 7 12 21 11 29 -1z m-110 -60 c8 -13 182
-13 190 0 3 6 26 10 50 10 34 0 47 -5 59 -22 24 -35 19 -71 -20 -143 l-36 -65
-84 0 c-49 0 -84 -4 -84 -10 0 -6 32 -10 75 -10 41 0 75 -2 75 -5 0 -3 -9 -23
-20 -45 -20 -38 -27 -114 -12 -123 12 -8 91 43 97 64 4 10 11 19 16 19 12 0
12 -122 -1 -154 -10 -26 -10 -26 -135 -26 l-125 0 0 110 c0 84 -3 111 -14 117
-8 4 -16 24 -18 43 -3 34 -5 35 -43 35 -38 0 -40 -2 -43 -32 -2 -25 -8 -33
-23 -33 -18 0 -19 8 -19 128 0 86 4 132 12 140 14 14 94 16 103 2z m325 -155
c0 -3 -9 -24 -20 -45 -11 -22 -16 -40 -10 -40 5 0 17 15 26 33 21 40 21 40 33
33 6 -4 -5 -33 -27 -74 -64 -116 -54 -106 -90 -88 l-32 16 36 63 c19 34 40 72
46 85 10 19 38 32 38 17z m-438 -162 c2 -19 8 -27 18 -24 19 5 31 5 50 0 10
-3 16 5 18 24 4 29 28 37 50 15 13 -13 17 -163 6 -192 -9 -24 -199 -24 -208 0
-3 9 -6 53 -6 98 0 87 8 106 46 106 17 0 23 -7 26 -27z m353 -53 c-8 -13 -35
0 -35 16 0 12 4 12 20 4 11 -6 18 -15 15 -20z"/>
<path d="M180 455 l0 -45 45 0 45 0 0 45 0 45 -45 0 -45 0 0 -45z m62 -8 c-17
-17 -24 -18 -36 -8 -15 13 -12 36 3 27 4 -3 13 -1 21 4 24 15 33 -2 12 -23z"/>
<path d="M368 473 c29 -2 74 -2 100 0 26 2 2 3 -53 3 -55 0 -76 -1 -47 -3z"/>
<path d="M358 433 c17 -2 47 -2 65 0 17 2 3 4 -33 4 -36 0 -50 -2 -32 -4z"/>
<path d="M330 290 c0 -5 25 -10 55 -10 30 0 55 5 55 10 0 6 -25 10 -55 10 -30
0 -55 -4 -55 -10z"/>
<path d="M363 193 c15 -2 37 -2 50 0 12 2 0 4 -28 4 -27 0 -38 -2 -22 -4z"/>
<path d="M353 153 c9 -2 25 -2 35 0 9 3 1 5 -18 5 -19 0 -27 -2 -17 -5z"/>
<path d="M180 90 c0 -18 5 -21 38 -18 25 2 37 8 37 18 0 10 -12 16 -37 18 -33
3 -38 0 -38 -18z"/>
</g>
</svg>
